<?xml version="1.0" encoding="utf-8"?>
<!-- Generator: Adobe Illustrator 28.3.0, SVG Export Plug-In . SVG Version: 6.00 Build 0)  -->
<svg version="1.1" id="Layer_1" xmlns="http://www.w3.org/2000/svg" xmlns:xlink="http://www.w3.org/1999/xlink" x="0px" y="0px"
	 viewBox="0 0 2500 2031" style="enable-background:new 0 0 2500 2031;" xml:space="preserve">
<style type="text/css">
	.st0{fill:#FFFFFF;stroke:#FFFFFF;stroke-width:1.1265;stroke-miterlimit:9.0116;}
</style>
<path class="st0" d="M1670.17,1.01V0.56h117.15l42.81,8.56c28.54,5.56,54.45,12.84,77.73,21.85c23.28,9.01,45.81,19.53,67.59,31.54
	c21.78,12.01,41.53,24.26,59.25,36.72c17.57,12.32,33.34,25.38,47.31,39.2c13.81,13.97,35.37,17.57,64.66,10.81
	c29.29-6.76,60.83-16.15,94.62-28.16s67.21-25.53,100.25-40.55c33.04-15.02,53.17-24.56,60.38-28.61c7.06-4.2,10.81-6.46,11.26-6.76
	l0.45-0.68l2.25-1.13l2.25-1.13l2.25-1.13l2.25-1.13l0.45-0.68l0.68-0.45l0.68-0.45l0.45-0.68l2.25-0.68l2.25-0.45l-0.45,3.38
	l-0.68,3.38l-1.13,3.38l-1.13,3.38l-1.13,2.25l-1.13,2.25l-1.13,3.38c-0.75,2.25-1.5,5.26-2.25,9.01
	c-0.75,3.76-7.89,18.77-21.4,45.06c-13.52,26.28-30.41,52.94-50.69,79.98c-20.28,27.03-38.45,47.46-54.52,61.28
	c-16.22,13.97-26.96,23.73-32.22,29.29c-5.26,5.71-11.64,10.96-19.15,15.77l-11.26,7.43l-2.25,1.13l-2.25,1.13l-0.45,0.68
	l-0.68,0.45l-0.68,0.45l-0.45,0.68l-2.25,1.13l-2.25,1.13l-0.45,0.68l-0.68,0.45l-0.68,0.45l-0.45,0.68l-0.45,0.68l-0.68,0.45
	l-0.68,0.45l-0.45,0.68h11.26l63.08-13.52c42.06-9.01,82.23-19.9,120.53-32.67l60.83-20.28l6.76-2.25l3.38-1.13l2.25-1.13l2.25-1.13
	l2.25-1.13l2.25-1.13l4.51-0.68l4.51-0.45v4.51l-1.13,0.45l-1.13,0.68l-0.45,0.68l-0.68,0.45l-0.68,0.45l-0.45,0.68l-0.45,0.68
	l-0.68,0.45l-0.68,0.45l-0.45,0.68l-0.45,0.68l-0.68,0.45l-1.13,2.25l-1.13,2.25l-0.68,0.45c-0.3,0.45-9.84,13.22-28.61,38.3
	c-18.77,25.23-28.91,38-30.41,38.3c-1.5,0.45-3.6,2.7-6.31,6.76c-2.55,4.2-18.47,20.95-47.76,50.24
	c-29.29,29.29-57.97,55.35-86.06,78.18c-28.24,22.98-42.51,51.22-42.81,84.71c-0.45,33.34-2.18,71.04-5.18,113.1
	c-3,42.06-8.64,87.49-16.9,136.3c-8.26,48.81-21.03,104.01-38.3,165.59c-17.27,61.58-38.3,121.66-63.08,180.23
	c-24.78,58.58-50.69,111.14-77.73,157.7s-51.82,85.99-74.35,118.28c-22.53,32.29-45.43,62.71-68.71,91.24
	c-23.28,28.54-52.72,60.68-88.31,96.42c-35.75,35.6-55.27,55.12-58.58,58.58c-3.45,3.3-18.17,15.62-44.16,36.95
	c-25.83,21.48-53.62,42.95-83.36,64.43c-29.59,21.33-56.77,39.13-81.56,53.39c-24.78,14.27-54.67,30.56-89.67,48.89
	c-34.84,18.47-72.54,35.6-113.1,51.37c-40.55,15.77-83.36,30.41-128.42,43.93s-88.61,24.03-130.67,31.54
	c-42.05,7.51-89.74,13.89-143.06,19.15l-79.98,7.89v1.13H714.93v-1.13l-19.15-1.13c-12.77-0.75-23.28-1.5-31.54-2.25
	c-8.26-0.75-39.43-4.88-93.5-12.39c-54.07-7.51-96.5-15.02-127.29-22.53c-30.79-7.51-76.6-21.78-137.43-42.81
	c-60.83-21.03-112.87-42.28-156.13-63.76c-43.1-21.33-70.14-34.85-81.1-40.55c-10.81-5.56-22.98-12.47-36.5-20.73l-20.28-12.39
	l-0.45-0.68l-0.68-0.45l-0.68-0.45l-0.45-0.68l-2.25-1.13l-2.25-1.13l-0.45-0.68l-0.68-0.45l-0.68-0.45l-0.45-0.68l-0.45-0.68
	l-0.68-0.45H0.76v-4.51l2.25,0.45l2.25,0.68l10.14,1.13c6.76,0.75,25.16,1.88,55.2,3.38c30.04,1.5,61.96,1.5,95.75,0
	s68.34-4.88,103.63-10.14c35.3-5.26,76.98-14.27,125.04-27.03c48.06-12.77,92.22-27.94,132.47-45.51
	c40.1-17.72,68.64-30.94,85.61-39.65c16.82-8.56,42.5-24.48,77.05-47.76l51.82-34.92l0.45-0.68l0.68-0.45l0.68-0.45l0.45-0.68
	l0.45-0.68l0.68-0.45l0.68-0.45l0.45-0.68l2.25-0.68l2.25-0.45l0.45-2.25l0.68-2.25l0.68-0.45l0.45-0.68l-18.02-1.13
	c-12.01-0.75-23.66-1.5-34.92-2.25c-11.26-0.75-28.91-4.13-52.94-10.14c-24.03-6.01-49.94-15.02-77.73-27.04
	c-27.79-12.01-54.82-26.28-81.1-42.81c-26.28-16.52-45.28-30.27-57-41.23c-11.56-10.82-26.58-26.13-45.06-45.96
	c-18.32-19.97-34.24-40.48-47.76-61.5c-13.52-21.03-26.43-45.29-38.75-72.77l-18.7-41l-1.13-3.38l-1.13-3.38l-0.68-2.25l-0.45-2.25
	l3.38,0.45l3.38,0.68l24.78,3.38c16.52,2.25,42.43,3,77.73,2.25c35.3-0.75,59.7-2.25,73.22-4.51c13.52-2.25,21.78-3.76,24.78-4.51
	l4.51-1.13l5.63-1.13l5.63-1.13l0.45-0.68l0.68-0.45l0.68-0.45l0.45-0.68l-4.51-1.13l-4.51-1.13l-4.51-1.13l-4.51-1.13l-4.51-1.13
	c-3-0.75-8.26-2.25-15.77-4.51c-7.51-2.25-27.79-10.51-60.83-24.78c-33.04-14.27-59.33-28.16-78.85-41.68
	c-19.57-13.56-38.24-28.38-55.87-44.38c-17.57-16.22-36.87-37.1-57.9-62.63c-21.03-25.53-39.8-55.2-56.32-88.99
	c-16.52-33.79-28.91-66.08-37.17-96.88c-8.23-30.61-13.66-61.9-16.22-93.5l-4.06-47.31l2.25,0.45l2.25,0.68l2.25,1.13l2.25,1.13
	l2.25,1.13l2.25,1.13l34.92,15.77c23.28,10.51,52.19,19.53,86.74,27.03c34.55,7.51,55.2,11.64,61.96,12.39l10.14,1.13h20.28
	l-0.45-0.68l-0.68-0.45l-0.68-0.45l-0.45-0.68l-0.45-0.68l-0.68-0.45l-0.68-0.45l-0.45-0.68l-2.25-1.13l-2.25-1.13l-0.45-0.68
	l-0.68-0.45l-0.68-0.45l-0.45-0.68l-2.25-1.13l-2.25-1.13l-0.45-0.68c-0.45-0.3-6.91-5.11-19.38-14.42
	c-12.32-9.46-25.23-21.7-38.75-36.72c-13.52-15.02-27.03-30.79-40.55-47.31c-13.54-16.56-25.6-34.27-36.05-52.94
	c-10.51-18.77-21.63-42.66-33.34-71.64c-11.56-28.84-20.35-57.9-26.36-87.19c-6.01-29.29-9.39-58.2-10.14-86.74
	c-0.75-28.54,0-52.94,2.25-73.22c2.25-20.28,6.76-43.18,13.52-68.71s16.52-52.57,29.29-81.1l19.15-42.81l1.13-3.38l1.13-3.38
	l0.68-0.45l0.45-0.68l0.45-0.68l0.68-0.45l0.68,0.45l0.45,0.68l0.45,0.68l0.68,0.45l0.68,0.45l0.45,0.68l0.45,0.68l0.68,0.45
	l1.13,2.25l1.13,2.25l0.68,0.45l0.45,0.68l30.41,33.79c20.28,22.53,44.31,47.69,72.09,75.47c27.79,27.79,43.18,42.2,46.18,43.26
	c3.01,1.2,6.76,4.65,11.26,10.36c4.51,5.56,19.53,18.85,45.06,39.88c25.53,21.03,58.95,45.43,100.25,73.22
	c41.3,27.79,87.11,55.2,137.43,82.23c50.32,27.03,104.39,51.44,162.21,73.22c57.83,21.78,98.38,36.05,121.66,42.81
	c23.28,6.76,63.08,15.39,119.4,25.91c56.32,10.51,98.75,17.27,127.29,20.28c28.54,3,48.06,4.73,58.58,5.18l15.77,0.45l-0.45-3.38
	l-0.68-3.38l-4.51-28.16c-3-18.77-4.51-45.06-4.51-78.85s2.63-64.96,7.89-93.5c5.26-28.54,13.14-57.45,23.66-86.74
	c10.51-29.29,20.8-52.79,30.86-70.52c10.21-17.57,23.58-37.62,40.1-60.15c16.52-22.53,37.93-45.81,64.21-69.84
	c26.28-24.03,56.32-45.43,90.12-64.21s64.96-33.04,93.5-42.81c28.54-9.76,52.57-16.15,72.09-19.15
	C1660.41,3.19,1670.17,1.46,1670.17,1.01z"/>
</svg>
